<svg xmlns="http://www.w3.org/2000/svg" xmlns:xlink="http://www.w3.org/1999/xlink" xmlns:lucid="lucid" width="1462" height="884.69"><g transform="translate(-404.4959883926475 -219.5)" lucid:page-tab-id="0_0"><path d="M0 0h2000v1500H0z" fill="#fff"/><path d="M925.17 279.8H905.4c-.9 0-1.6-.73-1.6-1.62v-2.4c0-9.05 5.93-16.63 14.74-18.75.4-.1.78-.05 1.16.16 2.6 1.38 5.4 1.38 8 0 .38-.22.75-.26 1.16-.17 2.3.57 4.22 1.4 6.2 2.7l-1.82 2.7c-1.47-.95-2.85-1.6-4.57-2.05-3.28 1.5-6.66 1.5-9.94 0-7.03 1.97-11.7 8.1-11.7 15.4v.8h18.14z" stroke="#fff" stroke-opacity="0" fill="#666"/><path d="M923.68 261.4c-5.88 0-10.64-4.76-10.64-10.62 0-5.86 4.76-10.62 10.64-10.62 5.87-.06 10.66 4.65 10.72 10.5.05 4.05-2 7.5-5.57 9.42-1.65.92-3.25 1.32-5.15 1.32zm0-18c-4.1 0-7.46 3.28-7.48 7.38 0 2.78 1.4 5.16 3.87 6.48 2.32 1.25 4.9 1.25 7.22 0 2.47-1.34 3.9-3.76 3.86-6.58-.05-4.06-3.4-7.3-7.48-7.27zM978.4 279.8h-19.76v-3.23h18.13v-.8c0-7.3-4.66-13.44-11.68-15.4-3.3 1.53-6.68 1.53-9.97 0-1.73.48-3.13 1.14-4.6 2.17l-1.86-2.67c1.98-1.37 3.9-2.24 6.2-2.83.4-.1.82-.04 1.2.16 2.57 1.4 5.42 1.4 8.02 0 .36-.2.74-.25 1.15-.16 8.8 2.12 14.75 9.7 14.75 18.73v2.42c0 .88-.72 1.58-1.6 1.6z" stroke="#fff" stroke-opacity="0" fill="#666"/><path d="M960.07 261.4c-5.92 0-10.7-4.8-10.7-10.72 0-5.9 4.83-10.68 10.75-10.68 5.9 0 10.7 4.8 10.7 10.72 0 4.03-2.04 7.45-5.58 9.38-1.67.9-3.28 1.3-5.17 1.3zm0-18c-4.1-.02-7.44 3.28-7.46 7.4 0 2.77 1.4 5.14 3.87 6.45 2.32 1.26 4.9 1.26 7.23 0 2.5-1.33 3.94-3.77 3.9-6.6-.1-4.08-3.45-7.33-7.53-7.25zM967.8 316.2h-51.87c-.88 0-1.6-.7-1.6-1.6v-3.44c-.05-12.47 8.2-22.95 20.32-25.9.44-.1.83-.05 1.2.13 3.86 2.07 8.1 2.07 12 0 .34-.2.73-.25 1.17-.13 12.17 2.9 20.43 13.4 20.37 25.9v3.43c0 .9-.73 1.6-1.6 1.6zm-50.22-3.2h48.56v-1.84c0-10.73-6.93-19.75-17.34-22.54-4.57 2.2-9.36 2.2-13.93 0-10.4 2.8-17.3 11.8-17.3 22.54z" stroke="#fff" stroke-opacity="0" fill="#666"/><path d="M941.9 290.15c-2.55 0-4.75-.55-7.02-1.78-7.07-3.87-9.67-12.7-5.8-19.78 3.87-7.06 12.72-9.66 19.8-5.8 7.08 3.87 9.68 12.7 5.83 19.77-1.4 2.57-3.24 4.4-5.8 5.8-2.25 1.23-4.44 1.78-7 1.78zm0-25.5c-4.22-.05-7.87 2.07-9.9 5.8-2.93 5.4-.95 12.15 4.45 15.1 3.5 1.86 7.36 1.86 10.87 0 3.77-2.04 5.93-5.7 5.87-9.94-.1-6.1-5.15-11.03-11.3-10.95z" stroke="#fff" stroke-opacity="0" fill="#666"/><path d="M978.84 279.8H941c-.65 0-1.17-.5-1.17-1.17v-2.5c-.04-9.1 6-16.75 14.82-18.9.32-.1.6-.04.9.1 2.8 1.5 5.9 1.5 8.74 0 .24-.14.52-.2.84-.1 8.88 2.13 14.9 9.77 14.86 18.9v2.5c0 .66-.52 1.18-1.16 1.18zm-36.64-2.35h35.43v-1.33c0-7.83-5.06-14.4-12.65-16.45-3.34 1.6-6.83 1.6-10.17 0-7.58 2.04-12.6 8.62-12.6 16.45z" stroke="#fff" stroke-opacity="0" stroke-width=".73" fill="#fff" fill-opacity="0"/><path d="M942.8 279.8h-37.85c-.64 0-1.16-.5-1.16-1.17v-2.5c-.05-9.1 5.97-16.75 14.8-18.9.33-.1.6-.04.9.1 2.8 1.5 5.9 1.5 8.75 0 .24-.14.52-.2.85-.1 8.87 2.13 14.9 9.77 14.86 18.9v2.5c0 .66-.52 1.18-1.17 1.18zm-36.64-2.35h35.43v-1.33c0-7.83-5.07-14.4-12.67-16.45-3.33 1.6-6.82 1.6-10.16 0-7.6 2.04-12.6 8.62-12.6 16.45z" stroke="#fff" stroke-opacity="0" stroke-width=".73" fill="#fff" fill-opacity="0"/><path d="M565.5 600h1240v363.2h-1240z" stroke="#248814" stroke-width="2" fill-opacity="0"/><path d="M565.5 600h56v56h-56v-56z" stroke="#fff" stroke-opacity="0" fill="#248814"/><path d="M597.25 628.3h-1.18v-1.1c-.12-1.73-1.47-3.07-3.2-3.2-1.9-.13-3.53 1.3-3.66 3.2v1.07h-1.17c-.45 0-.8.36-.8.8v6.13c0 .44.35.8.8.8h9.22c.45 0 .8-.36.8-.8v-6.1c0-.44-.35-.8-.8-.8zm-6.4-1.06c.1-1.02 1-1.77 2-1.67.9.08 1.6.76 1.67 1.67v1.06h-3.7zm5.66 7.08h-7.67v-4.42h7.62z" stroke="#fff" stroke-opacity="0" fill="#fff"/><path d="M607.76 625.75c-.08-2.45-1.58-4.48-3.87-5.3-1.6-.47-3.17-.14-4.42.9-.66-1.45-1.45-2.6-2.58-3.76-3.24-3.36-7.94-4.3-12.2-2.4-4.02 1.9-6.4 5.63-6.52 10.05v.7c-3.4.97-5.66 4.08-5.5 7.65v.63c.38 4.28 3.92 7.52 8.2 7.47h26s7.42-.63 7.42-8.1c.04-3.9-2.67-7.2-6.54-7.86zm-.95 14.38H580.9c-3.45.06-6.28-2.52-6.57-5.96v-.52c-.16-3.05 1.92-5.7 4.92-6.3.37-.12.62-.48.58-.9-.04-.4-.04-.73 0-1.15.1-3.78 2.12-6.94 5.54-8.6 1.25-.57 2.4-.8 3.82-.84 2.63.08 4.87 1.04 6.7 2.94 1.25 1.3 2.04 2.6 2.63 4.3.03.15.1.28.24.37.37.27.87.2 1.12-.17.83-1.18 2.25-1.67 3.62-1.3 1.8.72 2.87 2.4 2.83 4.32-.07.4.22.82.63.9 3.58.36 6.2 3.55 5.83 7.12-.3 3.13-2.7 5.52-5.83 5.85z" stroke="#fff" stroke-opacity="0" fill="#fff"/><use xlink:href="#a" transform="matrix(1,0,0,1,636.4959883926475,620) translate(0 14.222222222222223)"/><use xlink:href="#b" transform="matrix(1,0,0,1,636.4959883926475,620) translate(0 33.777777777777786)"/><path d="M425.5 400h1420v683.2h-1420z" stroke="#232f3e" stroke-width="2" fill-opacity="0"/><path d="M425.5 400h56v56h-56v-56z" stroke="#fff" stroke-opacity="0" fill="#232f3e"/><path d="M443.72 425.87c-.04.48.04.87.16 1.34.13.4.3.7.5 1.07.04.1.08.22.08.34 0 .2-.12.36-.3.46l-.93.62c-.13.08-.25.13-.37.13-.17 0-.33-.06-.45-.2-.2-.22-.36-.43-.53-.7-.16-.25-.3-.53-.45-.86-1.1 1.37-2.63 2.1-4.4 2.06-1.14.06-2.13-.3-2.95-1.08-.78-.8-1.15-1.76-1.1-2.85-.05-1.23.4-2.28 1.35-3.08 1.06-.86 2.3-1.23 3.65-1.16.58 0 1.03.02 1.6.1.58.1 1.1.2 1.73.33v-1.1c.08-.88-.17-1.67-.7-2.37-.74-.56-1.56-.8-2.47-.7-.53 0-1.02.07-1.6.2-.57.13-1.02.3-1.6.5l-.5.2h-.24c-.2 0-.33-.16-.33-.45v-.75c0-.18.04-.33.12-.5.1-.16.24-.26.4-.33.66-.3 1.2-.5 1.9-.67.77-.2 1.47-.3 2.3-.28 1.46-.13 2.78.26 3.9 1.2.93 1.05 1.34 2.28 1.22 3.67zm-6.08 2.28c.58 0 1.07-.1 1.6-.28.58-.2 1.03-.5 1.44-.96.25-.27.4-.56.5-.93.12-.45.16-.84.16-1.3V424c-.53-.1-.95-.17-1.44-.2h-1.4c-.82-.08-1.56.12-2.2.58-.55.45-.8 1.04-.75 1.73-.04.6.12 1.16.53 1.6.45.38 1 .52 1.56.45zm12 1.6c-.2 0-.42-.03-.58-.15-.17-.17-.25-.36-.33-.6l-3.5-11.5-.1-.62c0-.24.1-.37.36-.37h1.46c.2 0 .37.04.58.15.16.18.25.37.3.6l2.5 9.96 2.37-9.93c0-.24.1-.44.3-.6.17-.12.37-.16.57-.15h1.2c.24 0 .4.03.6.15.18.18.26.36.3.6l2.34 9.94 2.56-10c.04-.2.16-.4.32-.58.17-.1.37-.17.58-.14h1.4c.16 0 .32.12.37.3v.31s0 .2-.13.35l-3.6 11.53c-.05.22-.13.42-.3.6-.2.1-.37.14-.57.13h-1.28c-.24.04-.45-.02-.6-.15-.18-.17-.26-.36-.3-.6l-2.3-9.6-2.3 9.6c-.04.24-.12.44-.3.6-.2.13-.4.2-.6.16zm19.2.38c-.8 0-1.5-.07-2.3-.25-.65-.13-1.14-.3-1.7-.6-.22-.1-.38-.23-.46-.4-.1-.16-.13-.3-.13-.45v-.75c0-.3.13-.46.33-.46h.3l.36.15c.57.24 1.02.4 1.6.5.6.15 1.15.2 1.8.2.8.06 1.48-.1 2.18-.48.5-.32.78-.83.74-1.42.04-.4-.12-.76-.37-1.04-.46-.4-.95-.65-1.53-.8l-2.17-.67c-.95-.26-1.73-.74-2.4-1.5-.48-.66-.73-1.36-.73-2.2 0-.58.13-1.07.42-1.6.27-.5.6-.88 1.05-1.2.5-.4 1-.62 1.6-.8.66-.17 1.2-.25 1.9-.24.32-.03.6-.03.98 0l.98.16.84.22.65.26c.16.1.28.22.44.38.1.15.13.3.13.5v.7c0 .3-.13.47-.37.47-.2-.03-.37-.08-.58-.18-.94-.42-1.8-.6-2.87-.58-.7-.04-1.3.08-1.97.4-.5.3-.74.8-.7 1.36 0 .4.12.76.45 1.05.5.4 1 .65 1.6.82l2.1.67c.94.24 1.68.7 2.3 1.44.5.64.7 1.3.7 2.1 0 .63-.13 1.17-.38 1.73-.28.55-.6.95-1.1 1.32-.5.4-1 .66-1.6.84-.74.23-1.4.33-2.14.34zM471.6 437.5c-5.6 3.8-11.37 5.56-18.15 5.54-8.55.05-15.83-2.74-22.16-8.45-.5-.42 0-1 .48-.68 7.07 4.05 14.02 5.9 22.2 5.9 6.1-.04 11.28-1.1 16.93-3.47.83-.35 1.52.54.7 1.13z" stroke="#fff" stroke-opacity="0" fill="#fff"/><path d="M473.66 435.2c-.65-.8-4.17-.38-5.75-.2-.47 0-.53-.36-.1-.67 2.8-1.97 7.4-1.4 8-.73.6.67-.15 5.28-2.8 7.48-.38.35-.76.15-.6-.28.56-1.52 1.88-4.83 1.26-5.6z" stroke="#fff" stroke-opacity="0" fill="#fff"/><use xlink:href="#c" transform="matrix(1,0,0,1,496.4959883926475,420) translate(0 14.222222222222223)"/><use xlink:href="#d" transform="matrix(1,0,0,1,496.4959883926475,420) translate(45.333333333333336 14.222222222222223)"/><path d="M520 720h1300v240H520z" fill="#fff" fill-opacity="0"/><path d="M532.04 720h8.02m8.03 0h8m8.04 0h8.02m8.02 0h8.03m8.03 0h8.03m8.02 0h8.03m8.03 0h8.03m8.02 0h8.03m8.03 0h8.03m8.02 0h8.03m8.03 0h8.03m8.02 0h8.02m8.03 0h8.02m8.03 0h8.02m8.03 0h8.02m8.03 0h8.02m8.03 0h8.02m8.03 0h8.02m8.03 0h8.02m8.02 0H845m8.02 0h8.03m8.02 0h8.03m8.02 0h8.03m8.02 0h8.03m8.02 0h8.03m8.02 0h8.03m8.02 0h8.03m8.02 0h8.02m8.02 0h8.02m8.03 0h8.02m8.02 0h8.02m8.03 0h8.02m8.02 0h8.02m8.03 0h8.02m8.02 0h8.02m8.03 0h8.02m8.02 0h8.02m8.02 0h8.03m8 0h8.04m8.02 0h8.03m8 0h8.04m8.02 0h8.03m8 0h8.04m8.02 0h8.02m8.03 0h8.03m8.03 0h8.02m8.03 0h8.03m8.03 0h8.02m8.03 0h8.03m8.03 0h8.02m8.03 0h8.03m8.03 0h8.02m8.03 0h8.03m8.02 0h8.03m8.02 0h8.03m8.02 0h8.03m8.02 0h8.03m8.02 0h8.03m8.02 0h8.03m8.02 0h8.02m8.03 0h8.03m8.02 0h8.02m8.03 0h8.02m8.03 0h8.02m8.03 0h8.02m8.03 0h8.02m8.03 0h8.02m8.03 0h8.02m8.03 0h8.02m8.02 0h8.03m8.02 0h8.02m8.02 0h8.03m8.02 0h8.02m8.02 0h8.03m8.02 0h8.02m8.02 0h8.03m8.02 0h8.02m8.02 0h8.02m8.03 0h8m8.04 0h8.02m8.03 0h4v4m0 8v8m0 8v8m0 8v8m0 8v8m0 8v8m0 8v8m0 8v8m0 8v8m0 8v8m0 8v8m0 8v8m0 8v8m0 8v8m0 8v8m0 8v4h-4m-8.04 0h-8.02m-8.03 0h-8m-8.04 0h-8.02m-8.02 0h-8.03m-8.03 0h-8.03m-8.02 0h-8.03m-8.03 0h-8.03m-8.02 0h-8.03m-8.03 0h-8.03m-8.02 0h-8.03m-8.03 0h-8.03m-8.02 0h-8.03m-8.03 0h-8.02m-8.03 0h-8.02m-8.03 0h-8.02m-8.03 0h-8.02m-8.03 0h-8.02m-8.03 0h-8.02m-8.03 0h-8.02m-8.02 0H1495m-8.03 0h-8.02m-8.02 0h-8.03m-8.02 0h-8.03m-8.02 0h-8.03m-8.02 0h-8.03m-8.02 0h-8.03m-8.02 0h-8.03m-8.02 0h-8.03m-8.02 0h-8.02m-8.03 0h-8.02m-8.02 0h-8.02m-8.03 0h-8.02m-8.02 0h-8.02m-8.03 0h-8.02m-8.02 0h-8.02m-8.03 0h-8.02m-8.02 0h-8.02m-8.02 0h-8.03m-8 0h-8.04m-8.02 0H1174m-8 0h-8.04m-8.02 0h-8.03m-8 0h-8.04m-8.02 0h-8.02m-8.03 0h-8.03m-8.03 0h-8.02m-8.03 0h-8.03m-8.03 0h-8.02m-8.03 0h-8.03m-8.03 0h-8.02m-8.03 0h-8.03m-8.03 0h-8.02m-8.02 0h-8.03m-8.02 0h-8.03m-8.02 0h-8.03m-8.02 0h-8.03m-8.02 0h-8.03m-8.02 0h-8.03m-8.02 0h-8.03m-8.02 0h-8.02m-8.03 0h-8.02m-8.03 0h-8.02m-8.03 0h-8.02m-8.03 0h-8.02m-8.03 0h-8.02m-8.03 0h-8.02m-8.03 0h-8.02m-8.03 0h-8.02m-8.02 0h-8.02m-8.02 0h-8.03m-8.02 0h-8.02m-8.02 0h-8.03m-8.02 0h-8.02m-8.02 0h-8.03m-8.02 0h-8.02m-8.02 0h-8.02m-8.03 0h-8.02m-8.02 0h-8.02m-8.03 0h-8m-8.04 0h-8.02m-8.03 0h-4v-4m0-8v-8m0-8v-8m0-8v-8m0-8v-8m0-8v-8m0-8v-8m0-8v-8m0-8v-8m0-8v-8m0-8v-8m0-8v-8m0-8v-8m0-8v-8m0-8v-8m0-8v-4h4" stroke="#147eba" stroke-width="2" fill="none"/><path d="M520.5 960V720H560v240z" stroke="#000" stroke-opacity="0" stroke-width="2" fill="#fff" fill-opacity="0"/><use xlink:href="#e" transform="matrix(6.123233995736766e-17,-1,1,6.123233995736766e-17,525.4904046589062,955.0000000000002) translate(35.98765432098763 29.582222222222224)"/><use xlink:href="#f" transform="matrix(6.123233995736766e-17,-1,1,6.123233995736766e-17,525.4904046589062,955.0000000000002) translate(133.962962962963 29.582222222222224)"/><use xlink:href="#g" transform="matrix(6.123233995736766e-17,-1,1,6.123233995736766e-17,525.4904046589062,955.0000000000002) translate(181.22222222222223 29.582222222222224)"/><path d="M620 738.5h360v200H620z" fill="#248814" fill-opacity=".13"/><path d="M620 738.5h56v56h-56v-56z" stroke="#fff" stroke-opacity="0" fill="#248814"/><path d="M663.38 760.67c-.15-.17-.34-.25-.56-.25h-5.15v-5.57c-.03-2.54-.96-4.7-2.84-6.4-1.9-1.84-4.15-2.76-6.77-2.76-2.65 0-4.9.83-6.8 2.62-1.9 1.7-2.87 3.86-2.9 6.4v5.66h-5.15c-.24 0-.43.08-.58.25-.16.16-.22.33-.22.58v25.3c0 .42.34.8.8.8h29.6c.46 0 .8-.38.8-.8v-25.3c0-.2-.06-.36-.22-.53zm-23.46-5.9c.03-2.13.8-3.88 2.37-5.3 1.6-1.5 3.52-2.2 5.73-2.2 2.22 0 4.12.75 5.7 2.25 1.54 1.42 2.32 3.2 2.32 5.33v5.57H639.9zm22.1 30.94h-28.03V762h28z" stroke="#fff" stroke-opacity="0" fill="#fff"/><path d="M647.2 775.8v6.25h1.6v-6.23c2.13-.4 3.62-2.2 3.63-4.35 0-2.44-1.97-4.42-4.4-4.43-2.2-.03-4.06 1.5-4.44 3.68-.42 2.4 1.2 4.68 3.6 5.08zm.82-7.16c.78 0 1.44.27 2 .83.54.55.82 1.2.8 2 .03 1.54-1.2 2.8-2.74 2.82h-.06c-1.56.1-2.92-1.06-3.04-2.62-.12-1.56 1.05-2.93 2.6-3.04h.44z" stroke="#fff" stroke-opacity="0" fill="#fff"/><use xlink:href="#h" transform="matrix(1,0,0,1,691,758.4946810739804) translate(0 14.222222222222223)"/><use xlink:href="#i" transform="matrix(1,0,0,1,691,758.4946810739804) translate(53.23456790123458 14.222222222222223)"/><use xlink:href="#j" transform="matrix(1,0,0,1,691,758.4946810739804) translate(114.46913580246915 14.222222222222223)"/><path d="M1020 738.5h360v200h-360z" fill="#147eba" fill-opacity=".13"/><path d="M1020 738.5h56v56h-56v-56z" stroke="#fff" stroke-opacity="0" fill="#147eba"/><path d="M1063.38 760.67c-.15-.17-.34-.25-.56-.25h-5.15v-5.57c-.03-2.54-.97-4.7-2.84-6.4-1.9-1.84-4.15-2.76-6.77-2.76-2.65 0-4.9.83-6.8 2.62-1.9 1.7-2.87 3.86-2.9 6.4v5.66h-5.15c-.24 0-.43.08-.58.25-.16.16-.22.33-.22.58v25.3c0 .42.34.8.8.8h29.6c.46 0 .8-.38.8-.8v-25.3c0-.2-.06-.36-.22-.53zm-23.46-5.9c.03-2.13.8-3.88 2.37-5.3 1.6-1.5 3.52-2.2 5.73-2.2 2.22 0 4.12.75 5.7 2.25 1.54 1.42 2.32 3.2 2.32 5.33v5.57h-16.16zm22.1 30.94h-28.03V762h28z" stroke="#fff" stroke-opacity="0" fill="#fff"/><path d="M1047.2 775.8v6.25h1.6v-6.23c2.13-.4 3.62-2.2 3.63-4.35 0-2.44-1.97-4.42-4.4-4.43-2.2-.03-4.07 1.5-4.44 3.68-.42 2.4 1.2 4.68 3.6 5.08zm.82-7.16c.78 0 1.44.27 2 .83.54.55.82 1.2.8 2 .03 1.54-1.2 2.8-2.74 2.82h-.06c-1.56.1-2.92-1.06-3.04-2.62-.12-1.56 1.05-2.93 2.6-3.04h.44z" stroke="#fff" stroke-opacity="0" fill="#fff"/><use xlink:href="#k" transform="matrix(1,0,0,1,1091.0000000000002,758.4946810739804) translate(0 14.222222222222223)"/><use xlink:href="#l" transform="matrix(1,0,0,1,1091.0000000000002,758.4946810739804) translate(60.14814814814815 14.222222222222223)"/><use xlink:href="#m" transform="matrix(1,0,0,1,1091.0000000000002,758.4946810739804) translate(121.38271604938274 14.222222222222223)"/><path d="M1420 738.5h360v200h-360z" fill="#147eba" fill-opacity=".13"/><path d="M1420 738.5h56v56h-56v-56z" stroke="#fff" stroke-opacity="0" fill="#147eba"/><path d="M1463.38 760.67c-.15-.17-.34-.25-.56-.25h-5.15v-5.57c-.03-2.54-.97-4.7-2.84-6.4-1.9-1.84-4.15-2.76-6.77-2.76-2.65 0-4.9.83-6.8 2.62-1.9 1.7-2.87 3.86-2.9 6.4v5.66h-5.15c-.24 0-.43.08-.58.25-.16.16-.22.33-.22.58v25.3c0 .42.34.8.8.8h29.6c.46 0 .8-.38.8-.8v-25.3c0-.2-.06-.36-.22-.53zm-23.46-5.9c.03-2.13.8-3.88 2.37-5.3 1.6-1.5 3.52-2.2 5.73-2.2 2.22 0 4.12.75 5.7 2.25 1.54 1.42 2.32 3.2 2.32 5.33v5.57h-16.16zm22.1 30.94h-28.03V762h28z" stroke="#fff" stroke-opacity="0" fill="#fff"/><path d="M1447.2 775.8v6.25h1.6v-6.23c2.13-.4 3.62-2.2 3.63-4.35 0-2.44-1.97-4.42-4.4-4.43-2.2-.03-4.07 1.5-4.44 3.68-.42 2.4 1.2 4.68 3.6 5.08zm.82-7.16c.78 0 1.44.27 2 .83.54.55.82 1.2.8 2 .03 1.54-1.2 2.8-2.74 2.82h-.06c-1.56.1-2.92-1.06-3.04-2.62-.12-1.56 1.05-2.93 2.6-3.04h.44z" stroke="#fff" stroke-opacity="0" fill="#fff"/><use xlink:href="#k" transform="matrix(1,0,0,1,1491,758.4946810739804) translate(0 14.222222222222223)"/><use xlink:href="#l" transform="matrix(1,0,0,1,1491,758.4946810739804) translate(60.14814814814815 14.222222222222223)"/><use xlink:href="#n" transform="matrix(1,0,0,1,1491,758.4946810739804) translate(121.38271604938274 14.222222222222223)"/><path d="M1135.5 626.83c-18.45 0-33.42-14.97-33.42-33.42 0-18.43 14.97-33.4 33.42-33.4 18.44 0 33.4 14.97 33.4 33.4 0 18.46-14.96 33.43-33.4 33.43zm0-63.96c-16.9 0-30.55 13.64-30.55 30.54 0 16.92 13.64 30.56 30.55 30.56 16.9 0 30.54-13.64 30.54-30.55 0-16.9-13.64-30.53-30.54-30.53z" stroke="#fff" stroke-opacity="0" fill="#693cc5"/><path d="M1151.5 613.5h-5.34c-.8 0-1.43-.64-1.43-1.43V584.5c-2.9-1.5-5.65-2.18-8.9-2.25-3.54.07-6.5.86-9.64 2.56v27.27c0 .8-.63 1.42-1.4 1.42h-5.3c-.8 0-1.42-.64-1.42-1.43v-31c0-.44.17-.8.5-1.07 5.07-4.2 10.72-6.12 17.26-5.96 6.2-.12 11.54 1.62 16.52 5.3.38.26.56.66.56 1.1v31.63c0 .8-.63 1.42-1.43 1.42zm-3.92-2.85h2.48v-29.5c-4.36-3-8.92-4.35-14.22-4.27-5.6-.16-10.45 1.42-14.9 4.8v28.97h2.43V583.9c0-.55.28-1.02.77-1.26 3.76-2.13 7.38-3.16 11.7-3.24 3.94.12 7.3 1 10.77 2.85h.15c.52.23.83.7.83 1.3z" stroke="#fff" stroke-opacity="0" fill="#693cc5"/><use xlink:href="#o" transform="matrix(1,0,0,1,1072.0808057910024,635.8303652032906) translate(33.40123456790123 14.222222222222223)"/><use xlink:href="#p" transform="matrix(1,0,0,1,1072.0808057910024,635.8303652032906) translate(28.462962962962962 35.55555555555556)"/><path d="M1102.08 360h64.76v63.83h-64.76V360z" stroke="#fff" stroke-opacity="0" fill="#693cc5"/><path d="M1125.64 396.55c1.15.4 2.17.58 3.4.62.76.06 1.44-.13 2.07-.57.5-.46.75-1.03.72-1.7.07-.7-.16-1.32-.67-1.82-.68-.44-1.4-.62-2.2-.56-.98.02-1.8.06-2.77.18v-1.2l.34-5.26h6.5v1.4h-5.04l-.23 3.58c.6-.1 1.1-.16 1.73-.16 1.14-.08 2.13.26 3 1 .78.74 1.15 1.68 1.1 2.75.03 1.1-.4 2.08-1.27 2.8-.97.76-2.07 1.1-3.33 1.06-1.23 0-2.27-.2-3.4-.7zM1139.75 391.43h.32c1.07-.07 2 .23 2.83.9.74.7 1.1 1.56 1.03 2.56.04 1.1-.4 2.03-1.27 2.73-1 .74-2.1 1.08-3.38 1.02-1.2 0-2.2-.23-3.3-.7v-1.4c1.1.4 2.12.58 3.3.62.78.06 1.46-.14 2.1-.6.5-.44.76-1.02.7-1.7.02-1.4-.88-2.12-2.7-2.12-.6 0-1.12.03-1.73.1v-1.17l3.74-4.02h-5.23v-1.44h7.25v1.4z" stroke="#fff" stroke-opacity="0" fill="#fff"/><path d="M1134.46 408.08c-.17 0-.3-.03-.45-.12-2.92-1.7-5.68-2.74-9.03-3.4-1.83-.32-7.76-1.7-7.76-5.96 0-1.92.77-3.2 1.73-4.82 1.5-2.17 2.25-4.37 2.35-7 0-2.5-.66-4.62-2.07-6.73-.2-.3-.16-.7.08-1l1.38-1.7c.27-.32.72-.42 1.1-.2 1.87 1.08 3.66 1.55 5.84 1.58 2.38.03 4.4-.6 6.34-2 .32-.2.73-.2 1 0 1.97 1.4 4 2.03 6.4 2 2.13-.03 3.96-.54 5.82-1.58.38-.22.83-.12 1.1.2l1.4 1.7c.23.28.26.7.05 1-1.4 2.08-2.02 4.22-2.06 6.74 0 3 1.25 5.1 2.35 6.98.96 1.6 1.72 2.9 1.72 4.82 0 4.25-5.94 5.64-7.77 5.95-3.35.67-6.1 1.67-9.04 3.4-.13.1-.27.13-.44.13zm-13.46-28.5c1.35 2.27 1.97 4.5 1.97 7.12 0 3.5-1.4 5.92-2.6 7.84-.85 1.5-1.44 2.52-1.44 3.97 0 3.03 5.28 4.13 6.32 4.32 3.4.66 6.17 1.7 9.18 3.4 3-1.7 5.8-2.74 9.18-3.4 1.08-.2 6.36-1.3 6.36-4.3 0-1.46-.6-2.47-1.5-3.98-1.13-1.92-2.58-4.35-2.58-7.84.04-2.62.66-4.85 2.04-7.12l-.55-.66c-1.93.97-3.83 1.45-6.04 1.45-2.55.03-4.73-.57-6.9-1.96-2.14 1.4-4.35 2-6.9 1.97-2.2 0-4.08-.48-6.04-1.45z" stroke="#fff" stroke-opacity="0" fill="#fff"/><path d="M1134.47 413.2c-.2 0-.38-.05-.56-.18-3.05-2.17-6.03-3.5-9.7-4.25-7.1-1.28-11.34-5.15-11.34-10.25.1-2.6.78-4.8 2.3-6.98.94-1.57 1.72-2.93 1.72-4.8-.1-2.6-1.17-4.76-3.15-6.5-.4-.26-.48-.82-.17-1.2.04 0 .04-.04.04-.04 0-.1 5.1-6.08 6.25-7.6.13-.27.4-.4.65-.4.3 0 .52.1.73.3 1.64 1.92 3.75 2.98 6.34 3.1 2.42 0 4.32-1.06 6.13-3.4.34-.38.95-.46 1.34-.12l.13.12c1.8 2.4 3.7 3.4 6.12 3.4 2.58-.12 4.7-1.18 6.33-3.1.22-.2.43-.3.73-.3.26 0 .52.13.65.4 1.18 1.52 6.22 7.5 6.27 7.6.13.17.2.38.17.64 0 .25-.13.42-.3.6-2 1.74-3.07 3.9-3.15 6.5 0 1.87.8 3.23 1.7 4.8 1.52 2.17 2.2 4.38 2.3 6.98 0 5.1-4.23 8.97-11.35 10.25-3.66.76-6.64 2.04-9.7 4.25-.13.08-.3.17-.48.17zm-18.93-33.73c2.07 2.04 3.1 4.42 3.15 7.27 0 2.34-1 4.04-2 5.7-1.03 1.82-2.02 3.48-2.02 6.12 0 6.2 7.54 8.04 9.83 8.46 3.76.77 6.83 2.04 9.97 4.17 3.1-2.14 6.17-3.4 9.93-4.18 2.28-.42 9.83-2.25 9.83-8.46 0-2.64-1-4.25-2.03-6.12-1-1.7-1.98-3.4-1.98-5.7.04-2.85 1.08-5.23 3.15-7.27-1.17-1.36-3.75-4.47-5.13-6.2-1.95 1.86-4.23 2.84-6.9 2.92-2.8 0-5.18-1.16-6.9-3.28-1.78 2.12-4.15 3.27-6.95 3.27-2.7-.1-4.97-1.07-6.9-2.94-1.26 1.74-3.9 4.85-5.06 6.2z" stroke="#fff" stroke-opacity="0" fill="#fff"/><use xlink:href="#q" transform="matrix(1,0,0,1,1072.0808057910024,432.82642606346894) translate(43.78395061728395 14.222222222222223)"/><use xlink:href="#r" transform="matrix(1,0,0,1,1072.0808057910024,432.82642606346894) translate(20.59876543209876 35.55555555555556)"/><g filter="url(#s)"><path d="M841.76 792.76h96.48v96.47h-96.48z" stroke="#fff" stroke-opacity="0" fill="#d86613"/><path d="M936.5 794.5v93h-93v-93h93m3.5-3.5H840v100h100V791z" stroke="#fff" stroke-opacity="0" fill="#fff"/><path d="M920 828.64v-2.35h-4.7v-5.13c0-2.35-1.95-4.3-4.3-4.3h-5.12v-4.7h-2.35v4.7h-4.7v-4.7h-2.36v4.7h-4.7v-4.7h-2.36v4.7h-4.7v-4.7h-2.35v4.7h-4.7v-4.7h-2.36v4.7h-5.12c-2.36 0-4.3 1.95-4.3 4.3v5.12h-4.7v2.34h4.7v4.7h-4.7v2.36h4.7v4.7h-4.7v2.36h4.7v4.7h-4.7v2.36h4.7v4.7h-4.7v2.36h4.7V862c0 2.35 1.94 4.3 4.3 4.3h5.1v4.7h2.37v-4.7h4.7v4.7h2.36v-4.7h4.7v4.7h2.37v-4.7h4.7v4.7h2.35v-4.7h4.7v4.7h2.36v-4.7H911c2.35 0 4.3-1.95 4.3-4.3v-5.12h4.7v-2.36h-4.7v-4.7h4.7v-2.35h-4.7v-4.7h4.7v-2.36h-4.7v-4.7h4.7v-2.35h-4.7v-4.7zM912.94 862c0 1.05-.88 1.94-1.94 1.94h-40.82c-1.06 0-1.94-.9-1.94-1.94v-40.83c0-1.06.88-1.94 1.94-1.94H911c1.06 0 1.94.88 1.94 1.94z" stroke="#fff" stroke-opacity="0" fill="#fff"/><path d="M901.9 827.47h-22.63c-1.53 0-2.8 1.27-2.8 2.8v22.64c0 1.53 1.27 2.8 2.8 2.8h22.64c1.53 0 2.8-1.27 2.8-2.8v-22.64c0-1.52-1.27-2.8-2.8-2.8zm.46 25.44c0 .26-.2.46-.45.46h-22.63c-.26 0-.46-.2-.46-.45v-22.64c0-.25.2-.45.47-.45h22.64c.26 0 .46.2.46.46z" stroke="#fff" stroke-opacity="0" fill="#fff"/><use xlink:href="#t" transform="matrix(1,0,0,1,810,899.9959883926476) translate(62.525 14.4)"/></g><g filter="url(#u)"><path d="M1152.24 792.74h95.52v95.5h-95.52z" stroke="#fff" stroke-opacity="0" fill="#3b48cc"/><path d="M1246.04 794.46v92.07h-92.08v-92.07h92.08m3.46-3.46h-99v99h99v-99z" stroke="#fff" stroke-opacity="0" fill="#fff"/><path d="M1200.58 810.8c-11.66 0-20.53 3.75-20.53 8.72v43.06c0 5.03 8.87 8.78 20.53 8.78 11.66 0 20.53-3.75 20.53-8.72v-43.06c0-5.03-8.82-8.78-20.52-8.78zm0 2.3c10.7 0 18.2 3.4 18.2 6.42 0 3.03-7.5 6.42-18.2 6.42-10.72 0-18.2-3.33-18.2-6.36 0-3.03 7.48-6.48 18.2-6.48zm0 55.96c-10.72 0-18.2-3.4-18.2-6.42v-9.08c3.38 2.78 10.07 4.6 18.2 4.6 8.17 0 14.82-1.82 18.2-4.6v9.08c0 3.03-7.5 6.42-18.2 6.42zm0-13.26c-10.72 0-18.2-3.33-18.2-6.36v-10.66c3.38 2.72 10.07 4.54 18.2 4.54 8.17 0 14.82-1.82 18.2-4.54v10.66c0 3.03-7.5 6.36-18.2 6.36zm0-14.84c-10.72 0-18.2-3.33-18.2-6.36v-10.96c3.38 2.78 10.07 4.6 18.2 4.6 8.17 0 14.82-1.82 18.2-4.6v10.9c0 3.03-7.5 6.42-18.2 6.42z" stroke="#fff" stroke-opacity="0" fill="#fff"/><use xlink:href="#v" transform="matrix(1,0,0,1,1120.497994196324,899) translate(28.574999999999996 14.4)"/><use xlink:href="#w" transform="matrix(1,0,0,1,1120.497994196324,899) translate(71.475 14.4)"/></g><path d="M1134.46 424.33v119.32" stroke="#333" fill="none"/><path d="M1134.93 424.34h-.95v-.5h.95z" stroke="#333" stroke-width=".05" fill="#333"/><path d="M1134.46 558.42l-4.64-14.26h9.27z" stroke="#333" fill="#333"/><path d="M980.5 278.1h141.96a12 12 0 0 1 12 12v53.52" stroke="#333" fill="none"/><path d="M980.5 278.58h-.5v-.95h.5z" stroke="#333" stroke-width=".05" fill="#333"/><path d="M1134.46 358.38l-4.64-14.26h9.27z" stroke="#333" fill="#333"/><path d="M1135.5 627.33v69.58a12 12 0 0 1-12 12H902a12 12 0 0 0-12 12v53.7" stroke="#333" fill="none"/><path d="M1135.5 626.83l.47-.02v.54h-.95v-.55z" stroke="#333" stroke-width=".05" fill="#333"/><path d="M890 789.38l-4.63-14.27h9.26z" stroke="#333" fill="#333"/><path d="M680 791h100v100H680V791z" stroke="#fff" stroke-opacity="0" stroke-width="2" fill="#3f8624"/><path d="M745.98 825.53c-.04-.2-.1-.34-.13-.5-1.2-3.66-8.58-5.54-15.85-5.54-7.3 0-14.66 1.87-15.84 5.52-.07.17-.1.3-.13.5V855.8c0 4.32 8 6.55 16 6.55s16-2.23 16-6.56v-29.73c0-.2-.02-.34-.05-.5zm-16-3.38c7.6 0 12.15 2 13.12 3.38-.97 1.33-5.54 3.34-13.13 3.34-7.62 0-12.16-1.97-13.16-3.34 1-1.37 5.58-3.38 13.2-3.38zm13.3 33.63c0 1.37-4.7 3.9-13.3 3.9-8.65 0-13.36-2.58-13.36-3.9v-27c3.04 1.8 8.2 2.75 13.35 2.75 5.12 0 10.3-.94 13.32-2.74z" stroke="#fff" stroke-opacity="0" stroke-width="2" fill="#fff"/><path d="M714.16 825c-.05.17-.1.33-.12.52V825zM746 825v.52c-.03-.2-.07-.35-.12-.52zM710.95 820.04l-1.9 1.9-9.7-9.72v7.44h-2.68V809c0-.74.6-1.34 1.33-1.34h10.66v2.67h-7.44zM763.33 809v10.66h-2.67v-7.44l-9.7 9.72-1.9-1.9 9.72-9.7h-7.44v-2.68H762c.73 0 1.33.6 1.33 1.33zM701.22 871.66h7.44v2.67H698c-.73 0-1.33-.6-1.33-1.33v-10.67h2.67v7.44l9.7-9.72 1.9 1.9zM763.33 862.33V873c0 .73-.6 1.33-1.33 1.33h-10.66v-2.67h7.44l-9.73-9.7 1.9-1.9 9.7 9.7v-7.43z" stroke="#fff" stroke-opacity="0" stroke-width="2" fill="#fff"/><use xlink:href="#x" transform="matrix(1,0,0,1,650,899.9959883926476) translate(18.074999999999996 14.4)"/><use xlink:href="#y" transform="matrix(1,0,0,1,650,899.9959883926476) translate(89.025 14.4)"/><use xlink:href="#z" transform="matrix(1,0,0,1,650,899.9959883926476) translate(7.599999999999994 36)"/><use xlink:href="#A" transform="matrix(1,0,0,1,650,899.9959883926476) translate(56.55 36)"/><use xlink:href="#B" transform="matrix(1,0,0,1,650,899.9959883926476) translate(104.5 36)"/><path d="M839.5 841h-29a.5.5 0 0 1-.5-.5.5.5 0 0 0-.5-.5h-13.12" stroke="#333" fill="none"/><path d="M840 841.47h-.5v-.95h.5z" stroke="#333" stroke-width=".05" fill="#333"/><path d="M781.62 840l14.26-4.63v9.26z" stroke="#333" fill="#333"/><path d="M1549.5 800h101v101h-101V800z" stroke="#fff" stroke-opacity="0" stroke-width="2" fill="#3f8624"/><path d="M1632.22 853.9c-.38-2.08-2.77-3.56-4.45-4.64-.5-.34-1.93-.88-2.06-1.35 0-.32 0-.66.14-1l1.35-9.64 1.15-8.56c.33-2.57-.9-4.32-3.03-5.8-4.32-3.03-10-4.25-15.1-5.06-6.7-1.08-12.58-1.28-19.36-.6-6.13.4-11.22 1.6-16.9 4.04-2.84 1.35-6.65 3.44-6.13 7.08 1.3 10.92 2.9 21.85 4.38 32.77.66 5 1.37 9.98 2 14.97.27 2.1 1.43 3.7 3.37 4.5 4.13 2.24 9.3 2.9 14 3.32 6.52.6 12.07.4 18.52-.8 3.86-.7 11.1-1.9 11.74-6.75.77-6 1.6-12 2.38-18l.33-1.83c2.2.54 8.45 1.7 7.67-2.63zm-34.2-34.37c8.14 0 17.36.94 24.6 4.92 1.15.6 3.73 1.95 2.96 3.64-.78 1.6-3.23 2.42-4.7 3.02-2.2.8-4.2 1.35-6.53 1.83-10.06 2.02-18.97 2.22-29.16.6h-.02c-4.58-.47-8.38-1.62-12.5-3.64-.98-.6-2.6-1.54-2.14-2.9.32-.73.84-1.27 1.55-1.67 3.15-2.03 6.05-3.24 9.73-3.92 5.55-1.33 10.45-1.94 16.2-1.87zm21.17 56.77c-.27 1.55-2.85 2.36-4.08 2.76-2.7.95-5.1 1.5-7.93 1.83-6.27.8-11.7.8-18.02 0-3.93-.35-7.22-1.23-10.77-2.98-.96-.4-1.54-1.28-1.6-2.3-1.36-10.72-2.84-21.37-4.33-32.02l-1.55-11.6c3.23 1.75 6.2 2.83 9.8 3.44 3.95.8 7.24 1.2 11.24 1.48 7.74.54 14.4.2 22.07-1.2 4.06-.62 7.42-1.76 11.03-3.72l-2.84 21.1c-7.22-2.36-13.16-4.72-19.94-8.02-.32-.13-.58-.27-.84-.4-.38-.27-.25-.14-.45-.54-.33-.8-.4-1.35-1.1-2.02-.65-.48-1.36-.68-2.13-.6-1.68.06-2.97 1.54-2.84 3.23.13 1.6 1.6 2.9 3.3 2.76.44-.06.83-.2 1.34-.4.52-.13.52-.13 1.04.14 6.9 3.37 12.9 5.87 20.2 8.3 1.04.33 1.04 0 1.04.87-.07.68-.13 1.3-.26 1.96l-.84 6.4zm-20.8-31.9c0 .4-.5.35-.63.14-.2-.27.64-.6.64-.13zm26.53 9.45l.4-2.97c1.35.8 3.6 1.96 4.25 3.44-1.36.54-3.42-.14-4.65-.47z" stroke="#fff" stroke-opacity="0" stroke-width="2" fill="#fff"/><g><use xlink:href="#x" transform="matrix(1,0,0,1,1519.5020058036762,909.9959883926476) translate(17.599999999999994 14.4)"/><use xlink:href="#C" transform="matrix(1,0,0,1,1519.5020058036762,909.9959883926476) translate(88.55 14.4)"/><use xlink:href="#D" transform="matrix(1,0,0,1,1519.5020058036762,909.9959883926476) translate(16.574999999999996 36)"/><use xlink:href="#E" transform="matrix(1,0,0,1,1519.5020058036762,909.9959883926476) translate(84.525 36)"/><use xlink:href="#F" transform="matrix(1,0,0,1,1519.5020058036762,909.9959883926476) translate(63.55 57.6)"/></g><path d="M940.5 818.67h193.6" stroke="#333" fill="none"/><path d="M940.5 819.14h-.5v-.95h.5z" stroke="#333" stroke-width=".05" fill="#333"/><path d="M1148.88 818.67l-14.27 4.63v-9.27z" stroke="#333" fill="#333"/><path d="M1400.47 862.52v75.5l-.15 1.93-.45 1.9-.75 1.8-1.03 1.68-1.28 1.5-1.5 1.26-1.66 1.02-1.8.75-1.9.45-1.94.15H972.98l-1.93-.15-1.9-.45-1.8-.75-1.68-1.03-1.5-1.28-1.26-1.5-1.02-1.66-.75-1.8-.45-1.9-.15-1.94v-62l-.15-1.82-.42-1.76-.7-1.67-.94-1.54-1.17-1.38-1.38-1.17-1.54-.95-1.67-.7-1.76-.4-1.82-.15h-8.48v-.96h8.52l1.93.16 1.9.45 1.8.75 1.68 1.03 1.5 1.28 1.26 1.5 1.02 1.66.75 1.8.45 1.9.15 1.94v62l.15 1.82.42 1.76.7 1.67.94 1.54 1.17 1.38 1.38 1.17 1.54.95 1.67.7 1.76.4 1.82.15h414.96l1.82-.14 1.76-.42 1.67-.7 1.54-.94 1.38-1.17 1.17-1.38.95-1.54.7-1.67.4-1.76.16-1.82v-75.5l.1-1.18h.94zm132.65-11.55h-51.94v-.95h51.94z" stroke="#333" stroke-width=".05" fill="#333"/><path d="M940.5 864.48h-.5v-.96h.5z" fill="#333"/><path stroke="#333" stroke-width=".05" fill="#333"/><path d="M1547.88 850.5l-14.26 4.63v-9.27z" fill="#333"/><path d="M1549.42 850.5l-16.28 5.3v-10.6zm-15.33 3.98l12.25-3.98-12.26-3.98z" stroke="#333" stroke-width=".05" fill="#333"/><g><use xlink:href="#G" transform="matrix(1,0,0,1,1385.4833333333333,839.6979941963239) translate(0.005000000000002558 14.4)"/><use xlink:href="#H" transform="matrix(1,0,0,1,1385.4833333333333,839.6979941963239) translate(22.955000000000005 14.4)"/></g><defs><path fill="#666" d="M147 0H94L2-248h55l64 206c17-72 42-137 63-206h54" id="I"/><path fill="#666" d="M24-248c93 1 206-16 204 79-1 75-69 88-152 82V0H24v-248zm52 121c47 0 100 7 100-41 0-47-54-39-100-39v80" id="J"/><path fill="#666" d="M67-125c0 53 21 87 73 88 37 1 54-22 65-47l45 17C233-25 199 4 140 4 58 4 20-42 15-125 8-235 124-281 211-232c18 10 29 29 36 50l-46 12c-8-25-30-41-62-41-52 0-71 34-72 86" id="K"/><g id="a"><use transform="matrix(0.04938271604938272,0,0,0.04938271604938272,0,0)" xlink:href="#I"/><use transform="matrix(0.04938271604938272,0,0,0.04938271604938272,11.851851851851853,0)" xlink:href="#J"/><use transform="matrix(0.04938271604938272,0,0,0.04938271604938272,23.703703703703706,0)" xlink:href="#K"/></g><path fill="#666" d="M27 0v-27h64v-190l-56 39v-29l58-41h29v221h61V0H27" id="L"/><path fill="#666" d="M101-251c68 0 85 55 85 127S166 4 100 4C33 4 14-52 14-124c0-73 17-127 87-127zm-1 229c47 0 54-49 54-102s-4-102-53-102c-51 0-55 48-55 102 0 53 5 102 54 102" id="M"/><path fill="#666" d="M33 0v-38h34V0H33" id="N"/><path fill="#666" d="M0 4l72-265h28L28 4H0" id="O"/><path fill="#666" d="M110-160c48 1 74 30 74 79 0 53-28 85-80 85-65 0-83-55-86-122-5-90 50-162 133-122 14 7 22 21 27 39l-31 6c-5-40-67-38-82-6-9 19-15 44-15 74 11-20 30-34 60-33zm-7 138c34 0 49-23 49-58s-16-56-50-56c-29 0-50 16-49 49 1 36 15 65 50 65" id="P"/><g id="b"><use transform="matrix(0.04320987654320988,0,0,0.04320987654320988,0,0)" xlink:href="#L"/><use transform="matrix(0.04320987654320988,0,0,0.04320987654320988,8.641975308641976,0)" xlink:href="#M"/><use transform="matrix(0.04320987654320988,0,0,0.04320987654320988,17.283950617283953,0)" xlink:href="#N"/><use transform="matrix(0.04320987654320988,0,0,0.04320987654320988,21.60493827160494,0)" xlink:href="#M"/><use transform="matrix(0.04320987654320988,0,0,0.04320987654320988,30.24691358024692,0)" xlink:href="#N"/><use transform="matrix(0.04320987654320988,0,0,0.04320987654320988,34.567901234567906,0)" xlink:href="#M"/><use transform="matrix(0.04320987654320988,0,0,0.04320987654320988,43.20987654320988,0)" xlink:href="#N"/><use transform="matrix(0.04320987654320988,0,0,0.04320987654320988,47.53086419753087,0)" xlink:href="#M"/><use transform="matrix(0.04320987654320988,0,0,0.04320987654320988,56.17283950617284,0)" xlink:href="#O"/><use transform="matrix(0.04320987654320988,0,0,0.04320987654320988,60.49382716049384,0)" xlink:href="#L"/><use transform="matrix(0.04320987654320988,0,0,0.04320987654320988,69.13580246913581,0)" xlink:href="#P"/></g><path fill="#666" d="M199 0l-22-63H83L61 0H9l90-248h61L250 0h-51zm-33-102l-36-108c-10 38-24 72-36 108h72" id="Q"/><path fill="#666" d="M275 0h-61l-44-196L126 0H64L0-248h53L97-49l45-199h58l43 199 44-199h52" id="R"/><path fill="#666" d="M169-182c-1-43-94-46-97-3 18 66 151 10 154 114 3 95-165 93-204 36-6-8-10-19-12-30l50-8c3 46 112 56 116 5-17-69-150-10-154-114-4-87 153-88 188-35 5 8 8 18 10 28" id="S"/><g id="c"><use transform="matrix(0.04938271604938272,0,0,0.04938271604938272,0,0)" xlink:href="#Q"/><use transform="matrix(0.04938271604938272,0,0,0.04938271604938272,11.80246913580247,0)" xlink:href="#R"/><use transform="matrix(0.04938271604938272,0,0,0.04938271604938272,28.543209876543205,0)" xlink:href="#S"/></g><path fill="#666" d="M25 0v-261h50V0H25" id="T"/><path fill="#666" d="M110-194c64 0 96 36 96 99 0 64-35 99-97 99-61 0-95-36-95-99 0-62 34-99 96-99zm-1 164c35 0 45-28 45-65 0-40-10-65-43-65-34 0-45 26-45 65 0 36 10 65 43 65" id="U"/><path fill="#666" d="M85 4C-2 5 27-109 22-190h50c7 57-23 150 33 157 60-5 35-97 40-157h50l1 190h-47c-2-12 1-28-3-38-12 25-28 42-61 42" id="V"/><path fill="#666" d="M88-194c31-1 46 15 58 34l-1-101h50l1 261h-48c-2-10 0-23-3-31C134-8 116 4 84 4 32 4 16-41 15-95c0-56 19-97 73-99zm17 164c33 0 40-30 41-66 1-37-9-64-41-64s-38 30-39 65c0 43 13 65 39 65" id="W"/><g id="d"><use transform="matrix(0.04938271604938272,0,0,0.04938271604938272,0,0)" xlink:href="#K"/><use transform="matrix(0.04938271604938272,0,0,0.04938271604938272,12.790123456790125,0)" xlink:href="#T"/><use transform="matrix(0.04938271604938272,0,0,0.04938271604938272,17.7283950617284,0)" xlink:href="#U"/><use transform="matrix(0.04938271604938272,0,0,0.04938271604938272,28.54320987654322,0)" xlink:href="#V"/><use transform="matrix(0.04938271604938272,0,0,0.04938271604938272,39.35802469135803,0)" xlink:href="#W"/></g><path fill="#666" d="M128 0H69L1-190h53L99-40l48-150h52" id="X"/><path fill="#666" d="M133-34C117-15 103 5 69 4 32 3 11-16 11-54c-1-60 55-63 116-61 1-26-3-47-28-47-18 1-26 9-28 27l-52-2c7-38 36-58 82-57s74 22 75 68l1 82c-1 14 12 18 25 15v27c-30 8-71 5-69-32zm-48 3c29 0 43-24 42-57-32 0-66-3-65 30 0 17 8 27 23 27" id="Y"/><path fill="#666" d="M25-224v-37h50v37H25zM25 0v-190h50V0H25" id="Z"/><path fill="#666" d="M135-194c52 0 70 43 70 98 0 56-19 99-73 100-30 1-46-15-58-35L72 0H24l1-261h50v104c11-23 29-37 60-37zM114-30c31 0 40-27 40-66 0-37-7-63-39-63s-41 28-41 65c0 36 8 64 40 64" id="aa"/><path fill="#666" d="M115-3C79 11 28 4 28-45v-112H4v-33h27l15-45h31v45h36v33H77v99c-1 23 16 31 38 25v30" id="ab"/><path fill="#666" d="M123 10C108 53 80 86 19 72V37c35 8 53-11 59-39L3-190h52l48 148c12-52 28-100 44-148h51" id="ac"/><g id="e"><use transform="matrix(0.04938271604938272,0,0,0.04938271604938272,0,0)" xlink:href="#Q"/><use transform="matrix(0.04938271604938272,0,0,0.04938271604938272,12.14814814814815,0)" xlink:href="#X"/><use transform="matrix(0.04938271604938272,0,0,0.04938271604938272,22.024691358024697,0)" xlink:href="#Y"/><use transform="matrix(0.04938271604938272,0,0,0.04938271604938272,31.90123456790124,0)" xlink:href="#Z"/><use transform="matrix(0.04938271604938272,0,0,0.04938271604938272,36.83950617283951,0)" xlink:href="#T"/><use transform="matrix(0.04938271604938272,0,0,0.04938271604938272,41.777777777777786,0)" xlink:href="#Y"/><use transform="matrix(0.04938271604938272,0,0,0.04938271604938272,51.65432098765432,0)" xlink:href="#aa"/><use transform="matrix(0.04938271604938272,0,0,0.04938271604938272,62.469135802469154,0)" xlink:href="#Z"/><use transform="matrix(0.04938271604938272,0,0,0.04938271604938272,67.40740740740742,0)" xlink:href="#T"/><use transform="matrix(0.04938271604938272,0,0,0.04938271604938272,72.3456790123457,0)" xlink:href="#Z"/><use transform="matrix(0.04938271604938272,0,0,0.04938271604938272,77.28395061728398,0)" xlink:href="#ab"/><use transform="matrix(0.04938271604938272,0,0,0.04938271604938272,83.16049382716052,0)" xlink:href="#ac"/></g><path fill="#666" d="M210 0H11v-37l134-170H24v-41h178v36L68-41h142V0" id="ad"/><path fill="#666" d="M135-194c87-1 58 113 63 194h-50c-7-57 23-157-34-157-59 0-34 97-39 157H25l-1-190h47c2 12-1 28 3 38 12-26 28-41 61-42" id="ae"/><path fill="#666" d="M185-48c-13 30-37 53-82 52C43 2 14-33 14-96s30-98 90-98c62 0 83 45 84 108H66c0 31 8 55 39 56 18 0 30-7 34-22zm-45-69c5-46-57-63-70-21-2 6-4 13-4 21h74" id="af"/><g id="f"><use transform="matrix(0.04938271604938272,0,0,0.04938271604938272,0,0)" xlink:href="#ad"/><use transform="matrix(0.04938271604938272,0,0,0.04938271604938272,10.814814814814815,0)" xlink:href="#U"/><use transform="matrix(0.04938271604938272,0,0,0.04938271604938272,21.62962962962963,0)" xlink:href="#ae"/><use transform="matrix(0.04938271604938272,0,0,0.04938271604938272,32.44444444444444,0)" xlink:href="#af"/></g><path fill="#666" d="M182-130c37 4 62 22 62 59C244 23 116-4 24 0v-248c84 5 203-23 205 63 0 31-19 50-47 55zM76-148c40-3 101 13 101-30 0-44-60-28-101-31v61zm0 110c48-3 116 14 116-37 0-48-69-32-116-35v72" id="ag"/><use transform="matrix(0.04938271604938272,0,0,0.04938271604938272,0,0)" xlink:href="#ag" id="g"/><path fill="#248814" d="M30-248c87 1 191-15 191 75 0 78-77 80-158 76V0H30v-248zm33 125c57 0 124 11 124-50 0-59-68-47-124-48v98" id="ah"/><path fill="#248814" d="M84 4C-5 8 30-112 23-190h32v120c0 31 7 50 39 49 72-2 45-101 50-169h31l1 190h-30c-1-10 1-25-2-33-11 22-28 36-60 37" id="ai"/><path fill="#248814" d="M115-194c53 0 69 39 70 98 0 66-23 100-70 100C84 3 66-7 56-30L54 0H23l1-261h32v101c10-23 28-34 59-34zm-8 174c40 0 45-34 45-75 0-40-5-75-45-74-42 0-51 32-51 76 0 43 10 73 51 73" id="aj"/><path fill="#248814" d="M24 0v-261h32V0H24" id="ak"/><path fill="#248814" d="M24-231v-30h32v30H24zM24 0v-190h32V0H24" id="al"/><path fill="#248814" d="M96-169c-40 0-48 33-48 73s9 75 48 75c24 0 41-14 43-38l32 2c-6 37-31 61-74 61-59 0-76-41-82-99-10-93 101-131 147-64 4 7 5 14 7 22l-32 3c-4-21-16-35-41-35" id="am"/><g id="h"><use transform="matrix(0.04938271604938272,0,0,0.04938271604938272,0,0)" xlink:href="#ah"/><use transform="matrix(0.04938271604938272,0,0,0.04938271604938272,11.851851851851853,0)" xlink:href="#ai"/><use transform="matrix(0.04938271604938272,0,0,0.04938271604938272,21.7283950617284,0)" xlink:href="#aj"/><use transform="matrix(0.04938271604938272,0,0,0.04938271604938272,31.60493827160494,0)" xlink:href="#ak"/><use transform="matrix(0.04938271604938272,0,0,0.04938271604938272,35.50617283950618,0)" xlink:href="#al"/><use transform="matrix(0.04938271604938272,0,0,0.04938271604938272,39.40740740740741,0)" xlink:href="#am"/></g><path fill="#248814" d="M185-189c-5-48-123-54-124 2 14 75 158 14 163 119 3 78-121 87-175 55-17-10-28-26-33-46l33-7c5 56 141 63 141-1 0-78-155-14-162-118-5-82 145-84 179-34 5 7 8 16 11 25" id="an"/><path fill="#248814" d="M117-194c89-4 53 116 60 194h-32v-121c0-31-8-49-39-48C34-167 62-67 57 0H25l-1-190h30c1 10-1 24 2 32 11-22 29-35 61-36" id="ao"/><path fill="#248814" d="M100-194c63 0 86 42 84 106H49c0 40 14 67 53 68 26 1 43-12 49-29l28 8c-11 28-37 45-77 45C44 4 14-33 15-96c1-61 26-98 85-98zm52 81c6-60-76-77-97-28-3 7-6 17-6 28h103" id="ap"/><path fill="#248814" d="M59-47c-2 24 18 29 38 22v24C64 9 27 4 27-40v-127H5v-23h24l9-43h21v43h35v23H59v120" id="aq"/><g id="i"><use transform="matrix(0.04938271604938272,0,0,0.04938271604938272,0,0)" xlink:href="#an"/><use transform="matrix(0.04938271604938272,0,0,0.04938271604938272,11.851851851851853,0)" xlink:href="#ai"/><use transform="matrix(0.04938271604938272,0,0,0.04938271604938272,21.7283950617284,0)" xlink:href="#aj"/><use transform="matrix(0.04938271604938272,0,0,0.04938271604938272,31.60493827160494,0)" xlink:href="#ao"/><use transform="matrix(0.04938271604938272,0,0,0.04938271604938272,41.48148148148149,0)" xlink:href="#ap"/><use transform="matrix(0.04938271604938272,0,0,0.04938271604938272,51.35802469135803,0)" xlink:href="#aq"/></g><path fill="#248814" d="M101-251c82-7 93 87 43 132L82-64C71-53 59-42 53-27h129V0H18c2-99 128-94 128-182 0-28-16-43-45-43s-46 15-49 41l-32-3c6-41 34-60 81-64" id="ar"/><use transform="matrix(0.04938271604938272,0,0,0.04938271604938272,0,0)" xlink:href="#ar" id="j"/><path fill="#147eba" d="M30-248c87 1 191-15 191 75 0 78-77 80-158 76V0H30v-248zm33 125c57 0 124 11 124-50 0-59-68-47-124-48v98" id="as"/><path fill="#147eba" d="M114-163C36-179 61-72 57 0H25l-1-190h30c1 12-1 29 2 39 6-27 23-49 58-41v29" id="at"/><path fill="#147eba" d="M24-231v-30h32v30H24zM24 0v-190h32V0H24" id="au"/><path fill="#147eba" d="M108 0H70L1-190h34L89-25l56-165h34" id="av"/><path fill="#147eba" d="M141-36C126-15 110 5 73 4 37 3 15-17 15-53c-1-64 63-63 125-63 3-35-9-54-41-54-24 1-41 7-42 31l-33-3c5-37 33-52 76-52 45 0 72 20 72 64v82c-1 20 7 32 28 27v20c-31 9-61-2-59-35zM48-53c0 20 12 33 32 33 41-3 63-29 60-74-43 2-92-5-92 41" id="aw"/><path fill="#147eba" d="M59-47c-2 24 18 29 38 22v24C64 9 27 4 27-40v-127H5v-23h24l9-43h21v43h35v23H59v120" id="ax"/><path fill="#147eba" d="M100-194c63 0 86 42 84 106H49c0 40 14 67 53 68 26 1 43-12 49-29l28 8c-11 28-37 45-77 45C44 4 14-33 15-96c1-61 26-98 85-98zm52 81c6-60-76-77-97-28-3 7-6 17-6 28h103" id="ay"/><g id="k"><use transform="matrix(0.04938271604938272,0,0,0.04938271604938272,0,0)" xlink:href="#as"/><use transform="matrix(0.04938271604938272,0,0,0.04938271604938272,11.851851851851853,0)" xlink:href="#at"/><use transform="matrix(0.04938271604938272,0,0,0.04938271604938272,17.728395061728396,0)" xlink:href="#au"/><use transform="matrix(0.04938271604938272,0,0,0.04938271604938272,21.62962962962963,0)" xlink:href="#av"/><use transform="matrix(0.04938271604938272,0,0,0.04938271604938272,30.518518518518523,0)" xlink:href="#aw"/><use transform="matrix(0.04938271604938272,0,0,0.04938271604938272,40.39506172839506,0)" xlink:href="#ax"/><use transform="matrix(0.04938271604938272,0,0,0.04938271604938272,45.333333333333336,0)" xlink:href="#ay"/></g><path fill="#147eba" d="M185-189c-5-48-123-54-124 2 14 75 158 14 163 119 3 78-121 87-175 55-17-10-28-26-33-46l33-7c5 56 141 63 141-1 0-78-155-14-162-118-5-82 145-84 179-34 5 7 8 16 11 25" id="az"/><path fill="#147eba" d="M84 4C-5 8 30-112 23-190h32v120c0 31 7 50 39 49 72-2 45-101 50-169h31l1 190h-30c-1-10 1-25-2-33-11 22-28 36-60 37" id="aA"/><path fill="#147eba" d="M115-194c53 0 69 39 70 98 0 66-23 100-70 100C84 3 66-7 56-30L54 0H23l1-261h32v101c10-23 28-34 59-34zm-8 174c40 0 45-34 45-75 0-40-5-75-45-74-42 0-51 32-51 76 0 43 10 73 51 73" id="aB"/><path fill="#147eba" d="M117-194c89-4 53 116 60 194h-32v-121c0-31-8-49-39-48C34-167 62-67 57 0H25l-1-190h30c1 10-1 24 2 32 11-22 29-35 61-36" id="aC"/><g id="l"><use transform="matrix(0.04938271604938272,0,0,0.04938271604938272,0,0)" xlink:href="#az"/><use transform="matrix(0.04938271604938272,0,0,0.04938271604938272,11.851851851851853,0)" xlink:href="#aA"/><use transform="matrix(0.04938271604938272,0,0,0.04938271604938272,21.7283950617284,0)" xlink:href="#aB"/><use transform="matrix(0.04938271604938272,0,0,0.04938271604938272,31.60493827160494,0)" xlink:href="#aC"/><use transform="matrix(0.04938271604938272,0,0,0.04938271604938272,41.48148148148149,0)" xlink:href="#ay"/><use transform="matrix(0.04938271604938272,0,0,0.04938271604938272,51.35802469135803,0)" xlink:href="#ax"/></g><path fill="#147eba" d="M101-251c82-7 93 87 43 132L82-64C71-53 59-42 53-27h129V0H18c2-99 128-94 128-182 0-28-16-43-45-43s-46 15-49 41l-32-3c6-41 34-60 81-64" id="aD"/><use transform="matrix(0.04938271604938272,0,0,0.04938271604938272,0,0)" xlink:href="#aD" id="m"/><path fill="#147eba" d="M155-56V0h-30v-56H8v-25l114-167h33v167h35v25h-35zm-30-156c-27 46-58 90-88 131h88v-131" id="aE"/><use transform="matrix(0.04938271604938272,0,0,0.04938271604938272,0,0)" xlink:href="#aE" id="n"/><path fill="#666" d="M33 0v-248h34V0H33" id="aF"/><path fill="#666" d="M117-194c89-4 53 116 60 194h-32v-121c0-31-8-49-39-48C34-167 62-67 57 0H25l-1-190h30c1 10-1 24 2 32 11-22 29-35 61-36" id="aG"/><path fill="#666" d="M59-47c-2 24 18 29 38 22v24C64 9 27 4 27-40v-127H5v-23h24l9-43h21v43h35v23H59v120" id="aH"/><path fill="#666" d="M100-194c63 0 86 42 84 106H49c0 40 14 67 53 68 26 1 43-12 49-29l28 8c-11 28-37 45-77 45C44 4 14-33 15-96c1-61 26-98 85-98zm52 81c6-60-76-77-97-28-3 7-6 17-6 28h103" id="aI"/><path fill="#666" d="M114-163C36-179 61-72 57 0H25l-1-190h30c1 12-1 29 2 39 6-27 23-49 58-41v29" id="aJ"/><g id="o"><use transform="matrix(0.04938271604938272,0,0,0.04938271604938272,0,0)" xlink:href="#aF"/><use transform="matrix(0.04938271604938272,0,0,0.04938271604938272,4.938271604938272,0)" xlink:href="#aG"/><use transform="matrix(0.04938271604938272,0,0,0.04938271604938272,14.814814814814817,0)" xlink:href="#aH"/><use transform="matrix(0.04938271604938272,0,0,0.04938271604938272,19.75308641975309,0)" xlink:href="#aI"/><use transform="matrix(0.04938271604938272,0,0,0.04938271604938272,29.629629629629633,0)" xlink:href="#aJ"/><use transform="matrix(0.04938271604938272,0,0,0.04938271604938272,35.50617283950618,0)" xlink:href="#aG"/><use transform="matrix(0.04938271604938272,0,0,0.04938271604938272,45.38271604938272,0)" xlink:href="#aI"/><use transform="matrix(0.04938271604938272,0,0,0.04938271604938272,55.25925925925927,0)" xlink:href="#aH"/></g><path fill="#666" d="M143 4C61 4 22-44 18-125c-5-107 100-154 193-111 17 8 29 25 37 43l-32 9c-13-25-37-40-76-40-61 0-88 39-88 99 0 61 29 100 91 101 35 0 62-11 79-27v-45h-74v-28h105v86C228-13 192 4 143 4" id="aK"/><path fill="#666" d="M141-36C126-15 110 5 73 4 37 3 15-17 15-53c-1-64 63-63 125-63 3-35-9-54-41-54-24 1-41 7-42 31l-33-3c5-37 33-52 76-52 45 0 72 20 72 64v82c-1 20 7 32 28 27v20c-31 9-61-2-59-35zM48-53c0 20 12 33 32 33 41-3 63-29 60-74-43 2-92-5-92 41" id="aL"/><path fill="#666" d="M206 0h-36l-40-164L89 0H53L-1-190h32L70-26l43-164h34l41 164 42-164h31" id="aM"/><path fill="#666" d="M179-190L93 31C79 59 56 82 12 73V49c39 6 53-20 64-50L1-190h34L92-34l54-156h33" id="aN"/><g id="p"><use transform="matrix(0.04938271604938272,0,0,0.04938271604938272,0,0)" xlink:href="#aK"/><use transform="matrix(0.04938271604938272,0,0,0.04938271604938272,13.827160493827162,0)" xlink:href="#aL"/><use transform="matrix(0.04938271604938272,0,0,0.04938271604938272,23.703703703703706,0)" xlink:href="#aH"/><use transform="matrix(0.04938271604938272,0,0,0.04938271604938272,28.641975308641978,0)" xlink:href="#aI"/><use transform="matrix(0.04938271604938272,0,0,0.04938271604938272,38.51851851851852,0)" xlink:href="#aM"/><use transform="matrix(0.04938271604938272,0,0,0.04938271604938272,51.308641975308646,0)" xlink:href="#aL"/><use transform="matrix(0.04938271604938272,0,0,0.04938271604938272,61.18518518518519,0)" xlink:href="#aN"/></g><path fill="#666" d="M30-248c118-7 216 8 213 122C240-48 200 0 122 0H30v-248zM63-27c89 8 146-16 146-99s-60-101-146-95v194" id="aO"/><path fill="#666" d="M190 0L58-211 59 0H30v-248h39L202-35l-2-213h31V0h-41" id="aP"/><path fill="#666" d="M185-189c-5-48-123-54-124 2 14 75 158 14 163 119 3 78-121 87-175 55-17-10-28-26-33-46l33-7c5 56 141 63 141-1 0-78-155-14-162-118-5-82 145-84 179-34 5 7 8 16 11 25" id="aQ"/><g id="q"><use transform="matrix(0.04938271604938272,0,0,0.04938271604938272,0,0)" xlink:href="#aO"/><use transform="matrix(0.04938271604938272,0,0,0.04938271604938272,12.790123456790125,0)" xlink:href="#aP"/><use transform="matrix(0.04938271604938272,0,0,0.04938271604938272,25.58024691358025,0)" xlink:href="#aQ"/></g><path fill="#666" d="M233-177c-1 41-23 64-60 70L243 0h-38l-65-103H63V0H30v-248c88 3 205-21 203 71zM63-129c60-2 137 13 137-47 0-61-80-42-137-45v92" id="aR"/><path fill="#666" d="M135-143c-3-34-86-38-87 0 15 53 115 12 119 90S17 21 10-45l28-5c4 36 97 45 98 0-10-56-113-15-118-90-4-57 82-63 122-42 12 7 21 19 24 35" id="aS"/><path fill="#666" d="M100-194c62-1 85 37 85 99 1 63-27 99-86 99S16-35 15-95c0-66 28-99 85-99zM99-20c44 1 53-31 53-75 0-43-8-75-51-75s-53 32-53 75 10 74 51 75" id="aT"/><path fill="#666" d="M24 0v-261h32V0H24" id="aU"/><path fill="#666" d="M84 4C-5 8 30-112 23-190h32v120c0 31 7 50 39 49 72-2 45-101 50-169h31l1 190h-30c-1-10 1-25-2-33-11 22-28 36-60 37" id="aV"/><path fill="#666" d="M24-231v-30h32v30H24zM24 0v-190h32V0H24" id="aW"/><g id="r"><use transform="matrix(0.04938271604938272,0,0,0.04938271604938272,0,0)" xlink:href="#aR"/><use transform="matrix(0.04938271604938272,0,0,0.04938271604938272,12.790123456790125,0)" xlink:href="#aI"/><use transform="matrix(0.04938271604938272,0,0,0.04938271604938272,22.66666666666667,0)" xlink:href="#aS"/><use transform="matrix(0.04938271604938272,0,0,0.04938271604938272,31.555555555555557,0)" xlink:href="#aT"/><use transform="matrix(0.04938271604938272,0,0,0.04938271604938272,41.4320987654321,0)" xlink:href="#aU"/><use transform="matrix(0.04938271604938272,0,0,0.04938271604938272,45.333333333333336,0)" xlink:href="#aV"/><use transform="matrix(0.04938271604938272,0,0,0.04938271604938272,55.20987654320988,0)" xlink:href="#aH"/><use transform="matrix(0.04938271604938272,0,0,0.04938271604938272,60.14814814814815,0)" xlink:href="#aW"/><use transform="matrix(0.04938271604938272,0,0,0.04938271604938272,64.0493827160494,0)" xlink:href="#aT"/><use transform="matrix(0.04938271604938272,0,0,0.04938271604938272,73.92592592592594,0)" xlink:href="#aG"/></g><path d="M30 0v-248h187v28H63v79h144v27H63v87h162V0H30" id="aX"/><path d="M212-179c-10-28-35-45-73-45-59 0-87 40-87 99 0 60 29 101 89 101 43 0 62-24 78-52l27 14C228-24 195 4 139 4 59 4 22-46 18-125c-6-104 99-153 187-111 19 9 31 26 39 46" id="aY"/><path d="M101-251c82-7 93 87 43 132L82-64C71-53 59-42 53-27h129V0H18c2-99 128-94 128-182 0-28-16-43-45-43s-46 15-49 41l-32-3c6-41 34-60 81-64" id="aZ"/><g id="t"><use transform="matrix(0.05,0,0,0.05,0,0)" xlink:href="#aX"/><use transform="matrix(0.05,0,0,0.05,12,0)" xlink:href="#aY"/><use transform="matrix(0.05,0,0,0.05,24.950000000000003,0)" xlink:href="#aZ"/></g><filter id="s" filterUnits="objectBoundingBox" x="-.07" y="-.05" width="1.14" height="1.14"><feOffset result="offOut" in="SourceAlpha" dy="2"/><feGaussianBlur result="blurOut" in="offOut" stdDeviation="3.5"/><feColorMatrix result="colorOut" in="blurOut" values="0 0 0 0 0 0 0 0 0 0 0 0 0 0 0 0 0 0 0.5019607843137255 0"/><feBlend in="SourceGraphic" in2="colorOut"/></filter><path d="M233-177c-1 41-23 64-60 70L243 0h-38l-65-103H63V0H30v-248c88 3 205-21 203 71zM63-129c60-2 137 13 137-47 0-61-80-42-137-45v92" id="ba"/><path d="M30-248c118-7 216 8 213 122C240-48 200 0 122 0H30v-248zM63-27c89 8 146-16 146-99s-60-101-146-95v194" id="bb"/><path d="M185-189c-5-48-123-54-124 2 14 75 158 14 163 119 3 78-121 87-175 55-17-10-28-26-33-46l33-7c5 56 141 63 141-1 0-78-155-14-162-118-5-82 145-84 179-34 5 7 8 16 11 25" id="bc"/><g id="v"><use transform="matrix(0.05,0,0,0.05,0,0)" xlink:href="#ba"/><use transform="matrix(0.05,0,0,0.05,12.950000000000001,0)" xlink:href="#bb"/><use transform="matrix(0.05,0,0,0.05,25.900000000000002,0)" xlink:href="#bc"/></g><path d="M240 0l2-218c-23 76-54 145-80 218h-23L58-218 59 0H30v-248h44l77 211c21-75 51-140 76-211h43V0h-30" id="bd"/><path d="M179-190L93 31C79 59 56 82 12 73V49c39 6 53-20 64-50L1-190h34L92-34l54-156h33" id="be"/><path d="M140-251c81 0 123 46 123 126C263-53 228-8 163 1c7 30 30 48 69 40v23c-55 16-95-15-103-61C56-3 17-48 17-125c0-80 42-126 123-126zm0 227c63 0 89-41 89-101s-29-99-89-99c-61 0-89 39-89 99S79-25 140-24" id="bf"/><path d="M30 0v-248h33v221h125V0H30" id="bg"/><g id="w"><use transform="matrix(0.05,0,0,0.05,0,0)" xlink:href="#bd"/><use transform="matrix(0.05,0,0,0.05,14.950000000000001,0)" xlink:href="#be"/><use transform="matrix(0.05,0,0,0.05,23.950000000000003,0)" xlink:href="#bc"/><use transform="matrix(0.05,0,0,0.05,35.95,0)" xlink:href="#bf"/><use transform="matrix(0.05,0,0,0.05,49.95,0)" xlink:href="#bg"/></g><filter id="u" filterUnits="objectBoundingBox" x="-.07" y="-.05" width="1.14" height="1.14"><feOffset result="offOut" in="SourceAlpha" dy="2"/><feGaussianBlur result="blurOut" in="offOut" stdDeviation="3.5"/><feColorMatrix result="colorOut" in="blurOut" values="0 0 0 0 0 0 0 0 0 0 0 0 0 0 0 0 0 0 0.5019607843137255 0"/><feBlend in="SourceGraphic" in2="colorOut"/></filter><path d="M205 0l-28-72H64L36 0H1l101-248h38L239 0h-34zm-38-99l-47-123c-12 45-31 82-46 123h93" id="bh"/><path d="M210-169c-67 3-38 105-44 169h-31v-121c0-29-5-50-35-48C34-165 62-65 56 0H25l-1-190h30c1 10-1 24 2 32 10-44 99-50 107 0 11-21 27-35 58-36 85-2 47 119 55 194h-31v-121c0-29-5-49-35-48" id="bi"/><path d="M141-36C126-15 110 5 73 4 37 3 15-17 15-53c-1-64 63-63 125-63 3-35-9-54-41-54-24 1-41 7-42 31l-33-3c5-37 33-52 76-52 45 0 72 20 72 64v82c-1 20 7 32 28 27v20c-31 9-61-2-59-35zM48-53c0 20 12 33 32 33 41-3 63-29 60-74-43 2-92-5-92 41" id="bj"/><path d="M9 0v-24l116-142H16v-24h144v24L44-24h123V0H9" id="bk"/><path d="M100-194c62-1 85 37 85 99 1 63-27 99-86 99S16-35 15-95c0-66 28-99 85-99zM99-20c44 1 53-31 53-75 0-43-8-75-51-75s-53 32-53 75 10 74 51 75" id="bl"/><path d="M117-194c89-4 53 116 60 194h-32v-121c0-31-8-49-39-48C34-167 62-67 57 0H25l-1-190h30c1 10-1 24 2 32 11-22 29-35 61-36" id="bm"/><g id="x"><use transform="matrix(0.05,0,0,0.05,0,0)" xlink:href="#bh"/><use transform="matrix(0.05,0,0,0.05,12,0)" xlink:href="#bi"/><use transform="matrix(0.05,0,0,0.05,26.950000000000003,0)" xlink:href="#bj"/><use transform="matrix(0.05,0,0,0.05,36.95,0)" xlink:href="#bk"/><use transform="matrix(0.05,0,0,0.05,45.95,0)" xlink:href="#bl"/><use transform="matrix(0.05,0,0,0.05,55.95,0)" xlink:href="#bm"/></g><path d="M24 0v-261h32V0H24" id="bn"/><path d="M135-143c-3-34-86-38-87 0 15 53 115 12 119 90S17 21 10-45l28-5c4 36 97 45 98 0-10-56-113-15-118-90-4-57 82-63 122-42 12 7 21 19 24 35" id="bo"/><path d="M59-47c-2 24 18 29 38 22v24C64 9 27 4 27-40v-127H5v-23h24l9-43h21v43h35v23H59v120" id="bp"/><path d="M24-231v-30h32v30H24zM24 0v-190h32V0H24" id="bq"/><path d="M96-169c-40 0-48 33-48 73s9 75 48 75c24 0 41-14 43-38l32 2c-6 37-31 61-74 61-59 0-76-41-82-99-10-93 101-131 147-64 4 7 5 14 7 22l-32 3c-4-21-16-35-41-35" id="br"/><g id="y"><use transform="matrix(0.05,0,0,0.05,0,0)" xlink:href="#aX"/><use transform="matrix(0.05,0,0,0.05,12,0)" xlink:href="#bn"/><use transform="matrix(0.05,0,0,0.05,15.949999999999998,0)" xlink:href="#bj"/><use transform="matrix(0.05,0,0,0.05,25.950000000000003,0)" xlink:href="#bo"/><use transform="matrix(0.05,0,0,0.05,34.95,0)" xlink:href="#bp"/><use transform="matrix(0.05,0,0,0.05,39.95,0)" xlink:href="#bq"/><use transform="matrix(0.05,0,0,0.05,43.900000000000006,0)" xlink:href="#br"/></g><path d="M160-131c35 5 61 23 61 61C221 17 115-2 30 0v-248c76 3 177-17 177 60 0 33-19 50-47 57zm-97-11c50-1 110 9 110-42 0-47-63-36-110-37v79zm0 115c55-2 124 14 124-45 0-56-70-42-124-44v89" id="bs"/><path d="M143 0L79-87 56-68V0H24v-261h32v163l83-92h37l-77 82L181 0h-38" id="bt"/><g id="z"><use transform="matrix(0.05,0,0,0.05,0,0)" xlink:href="#bs"/><use transform="matrix(0.05,0,0,0.05,12,0)" xlink:href="#bn"/><use transform="matrix(0.05,0,0,0.05,15.949999999999998,0)" xlink:href="#bl"/><use transform="matrix(0.05,0,0,0.05,25.950000000000003,0)" xlink:href="#br"/><use transform="matrix(0.05,0,0,0.05,34.95,0)" xlink:href="#bt"/></g><path d="M114-163C36-179 61-72 57 0H25l-1-190h30c1 12-1 29 2 39 6-27 23-49 58-41v29" id="bu"/><path d="M100-194c63 0 86 42 84 106H49c0 40 14 67 53 68 26 1 43-12 49-29l28 8c-11 28-37 45-77 45C44 4 14-33 15-96c1-61 26-98 85-98zm52 81c6-60-76-77-97-28-3 7-6 17-6 28h103" id="bv"/><g id="A"><use transform="matrix(0.05,0,0,0.05,0,0)" xlink:href="#bc"/><use transform="matrix(0.05,0,0,0.05,12,0)" xlink:href="#bp"/><use transform="matrix(0.05,0,0,0.05,17,0)" xlink:href="#bl"/><use transform="matrix(0.05,0,0,0.05,27,0)" xlink:href="#bu"/><use transform="matrix(0.05,0,0,0.05,32.95,0)" xlink:href="#bv"/></g><path d="M87 75C49 33 22-17 22-94c0-76 28-126 65-167h31c-38 41-64 92-64 168S80 34 118 75H87" id="bw"/><path d="M33-261c38 41 65 92 65 168S71 34 33 75H2C39 34 66-17 66-93S39-220 2-261h31" id="bx"/><g id="B"><use transform="matrix(0.05,0,0,0.05,0,0)" xlink:href="#bw"/><use transform="matrix(0.05,0,0,0.05,5.95,0)" xlink:href="#aX"/><use transform="matrix(0.05,0,0,0.05,17.95,0)" xlink:href="#bs"/><use transform="matrix(0.05,0,0,0.05,29.950000000000003,0)" xlink:href="#bc"/><use transform="matrix(0.05,0,0,0.05,41.95,0)" xlink:href="#bx"/></g><path d="M115-194c55 1 70 41 70 98S169 2 115 4C84 4 66-9 55-30l1 105H24l-1-265h31l2 30c10-21 28-34 59-34zm-8 174c40 0 45-34 45-75s-6-73-45-74c-42 0-51 32-51 76 0 43 10 73 51 73" id="by"/><g id="C"><use transform="matrix(0.05,0,0,0.05,0,0)" xlink:href="#bc"/><use transform="matrix(0.05,0,0,0.05,12,0)" xlink:href="#bq"/><use transform="matrix(0.05,0,0,0.05,15.949999999999998,0)" xlink:href="#bi"/><use transform="matrix(0.05,0,0,0.05,30.899999999999995,0)" xlink:href="#by"/><use transform="matrix(0.05,0,0,0.05,40.9,0)" xlink:href="#bn"/><use transform="matrix(0.05,0,0,0.05,44.85,0)" xlink:href="#bv"/></g><path d="M177-190C167-65 218 103 67 71c-23-6-38-20-44-43l32-5c15 47 100 32 89-28v-30C133-14 115 1 83 1 29 1 15-40 15-95c0-56 16-97 71-98 29-1 48 16 59 35 1-10 0-23 2-32h30zM94-22c36 0 50-32 50-73 0-42-14-75-50-75-39 0-46 34-46 75s6 73 46 73" id="bz"/><g id="D"><use transform="matrix(0.05,0,0,0.05,0,0)" xlink:href="#bc"/><use transform="matrix(0.05,0,0,0.05,12,0)" xlink:href="#bp"/><use transform="matrix(0.05,0,0,0.05,17,0)" xlink:href="#bl"/><use transform="matrix(0.05,0,0,0.05,27,0)" xlink:href="#bu"/><use transform="matrix(0.05,0,0,0.05,32.95,0)" xlink:href="#bj"/><use transform="matrix(0.05,0,0,0.05,42.95,0)" xlink:href="#bz"/><use transform="matrix(0.05,0,0,0.05,52.95,0)" xlink:href="#bv"/></g><path d="M108 0H70L1-190h34L89-25l56-165h34" id="bA"/><g id="E"><use transform="matrix(0.05,0,0,0.05,0,0)" xlink:href="#bc"/><use transform="matrix(0.05,0,0,0.05,12,0)" xlink:href="#bv"/><use transform="matrix(0.05,0,0,0.05,22,0)" xlink:href="#bu"/><use transform="matrix(0.05,0,0,0.05,27.950000000000003,0)" xlink:href="#bA"/><use transform="matrix(0.05,0,0,0.05,36.95,0)" xlink:href="#bq"/><use transform="matrix(0.05,0,0,0.05,40.900000000000006,0)" xlink:href="#br"/><use transform="matrix(0.05,0,0,0.05,49.900000000000006,0)" xlink:href="#bv"/></g><path d="M126-127c33 6 58 20 58 59 0 88-139 92-164 29-3-8-5-16-6-25l32-3c6 27 21 44 54 44 32 0 52-15 52-46 0-38-36-46-79-43v-28c39 1 72-4 72-42 0-27-17-43-46-43-28 0-47 15-49 41l-32-3c6-42 35-63 81-64 48-1 79 21 79 65 0 36-21 52-52 59" id="bB"/><g id="F"><use transform="matrix(0.05,0,0,0.05,0,0)" xlink:href="#bw"/><use transform="matrix(0.05,0,0,0.05,5.95,0)" xlink:href="#bc"/><use transform="matrix(0.05,0,0,0.05,17.95,0)" xlink:href="#bB"/><use transform="matrix(0.05,0,0,0.05,27.950000000000003,0)" xlink:href="#bx"/></g><path d="M33 0v-248h34V0H33" id="bC"/><path d="M190 0L58-211 59 0H30v-248h39L202-35l-2-213h31V0h-41" id="bD"/><g id="G"><use transform="matrix(0.05,0,0,0.05,0,0)" xlink:href="#bC"/><use transform="matrix(0.05,0,0,0.05,5,0)" xlink:href="#bD"/></g><path d="M63-220v92h138v28H63V0H30v-248h175v28H63" id="bE"/><path d="M232-93c-1 65-40 97-104 97C67 4 28-28 28-90v-158h33c8 89-33 224 67 224 102 0 64-133 71-224h33v155" id="bF"/><path d="M127-220V0H93v-220H8v-28h204v28h-85" id="bG"/><g id="H"><use transform="matrix(0.05,0,0,0.05,0,0)" xlink:href="#bE"/><use transform="matrix(0.05,0,0,0.05,10.950000000000001,0)" xlink:href="#bF"/><use transform="matrix(0.05,0,0,0.05,23.900000000000002,0)" xlink:href="#bG"/><use transform="matrix(0.05,0,0,0.05,34.85,0)" xlink:href="#bF"/><use transform="matrix(0.05,0,0,0.05,47.800000000000004,0)" xlink:href="#ba"/><use transform="matrix(0.05,0,0,0.05,60.75,0)" xlink:href="#aX"/></g></defs></g></svg>